<?xml version="1.0" encoding="utf-8"?>
<!-- Generator: Adobe Illustrator 16.0.0, SVG Export Plug-In . SVG Version: 6.00 Build 0)  -->
<!DOCTYPE svg PUBLIC "-//W3C//DTD SVG 1.1//EN" "http://www.w3.org/Graphics/SVG/1.1/DTD/svg11.dtd">
<svg version="1.1" id="레이어_1" xmlns="http://www.w3.org/2000/svg" xmlns:xlink="http://www.w3.org/1999/xlink" x="0px"
	 y="0px" width="30px" height="30px" viewBox="0 0 30 30" enable-background="new 0 0 30 30" xml:space="preserve">
<path fill="#FFFFFF" d="M21.095,20.105l-0.209-0.238l-3.973,2.043c-1.18-0.855-7.279-5.562-7.607-12.071l3.691-2.331L9.818,0.369
	L9.669,0.037L3.772,1.728L3.716,1.963C3.69,2.076,1.1,13.19,7.463,20.9c0.139,0.275,3.556,6.758,15.067,9.08l0.199,0.04l4.098-3.502
	L21.095,20.105z"/>
<path display="none" fill="#FFFFFF" d="M15.001,0.037c-8.268,0-14.994,6.727-14.994,14.993c0,8.268,6.727,14.994,14.994,14.994
	c8.267,0,14.993-6.727,14.993-14.994C29.994,6.764,23.268,0.037,15.001,0.037z M2.71,15.823h4.244
	c-0.004,1.752,0.215,3.578,0.781,5.447H4.378C3.421,19.649,2.836,17.805,2.71,15.823z M21.56,14.51h-6.013V8.859h5.121
	C21.329,10.81,21.569,12.705,21.56,14.51z M15.547,7.544V2.713c0.593,0.025,1.185,0.068,1.753,0.178
	c1.248,1.555,2.178,3.112,2.84,4.652H15.547z M14.231,7.544H9.942c0.9-2.108,1.93-3.733,2.562-4.635
	c0.563-0.11,1.144-0.137,1.728-0.174V7.544z M14.231,8.859v5.651H8.21c0.137-2.066,0.611-3.978,1.212-5.651H14.231z M6.976,14.51
	H2.679c0.089-2.058,0.683-3.969,1.665-5.651h3.789C7.562,10.559,7.112,12.461,6.976,14.51z M8.201,15.823h6.03v5.447H9.093
	C8.462,19.394,8.21,17.571,8.201,15.823z M14.231,22.586v4.741c-0.635-0.038-1.266-0.089-1.877-0.223
	c-1.191-1.516-2.092-3.025-2.732-4.519H14.231z M15.547,22.586h4.271c-0.887,2.078-1.893,3.679-2.533,4.587
	c-0.564,0.107-1.149,0.15-1.737,0.176V22.586z M15.547,21.271v-5.447h5.979c-0.154,1.986-0.605,3.83-1.188,5.447H15.547z
	 M22.772,15.823h4.521c-0.13,1.981-0.714,3.826-1.67,5.447h-3.996C22.185,19.628,22.618,17.797,22.772,15.823z M22.807,14.51
	c0.018-1.81-0.188-3.705-0.78-5.651h3.632c0.981,1.682,1.573,3.594,1.665,5.651H22.807z M24.783,7.544H21.53
	c-0.517-1.34-1.191-2.684-2.107-4.033C21.569,4.335,23.403,5.748,24.783,7.544z M10.591,3.506C9.968,4.548,9.255,5.919,8.61,7.544
	H5.218C6.597,5.743,8.44,4.335,10.591,3.506z M5.274,22.586h2.957c0.494,1.275,1.113,2.56,1.967,3.85
	C8.235,25.603,6.566,24.245,5.274,22.586z M19.162,26.631c0.626-1.042,1.339-2.415,1.989-4.045h3.576
	C23.302,24.421,21.39,25.828,19.162,26.631z"/>
<path display="none" fill="#FFFFFF" d="M25.085,0.037H4.907c-2.764,0-5.012,2.623-5.012,5.85v10.124c0,3.225,2.248,5.85,5.012,5.85
	h20.178c2.768,0,5.02-2.625,5.02-5.85V5.887C30.104,2.66,27.853,0.037,25.085,0.037z M25.085,2.42c0.512,0,0.971,0.256,1.377,0.605
	l-7.635,6.544c-4.037,2.078-6.568,0.031-6.699-0.076l-8.645-6.44C3.897,2.684,4.368,2.42,4.907,2.42H25.085z M2.854,18.075
	c-0.338-0.586-0.576-1.277-0.576-2.064V5.887c0-0.711,0.203-1.332,0.482-1.883l8.621,6.421c0.008,0.008,0.086,0.061,0.117,0.084
	L2.854,18.075z M4.907,19.476c-0.471,0-0.889-0.209-1.273-0.496l8.975-7.857c0.656,0.287,1.549,0.553,2.678,0.553
	c0.836,0,1.83-0.234,2.889-0.613l7.926,8.135c-0.313,0.18-0.658,0.279-1.016,0.279H4.907z M27.72,16.011
	c0,0.912-0.295,1.746-0.748,2.371l-7.59-7.787c0.039-0.016,0.07-0.02,0.105-0.039l7.717-6.595c0.299,0.563,0.516,1.203,0.516,1.926
	V16.011z"/>
</svg>
