<?xml version="1.0" encoding="utf-8"?>
<!-- Generator: Adobe Illustrator 16.0.0, SVG Export Plug-In . SVG Version: 6.00 Build 0)  -->
<!DOCTYPE svg PUBLIC "-//W3C//DTD SVG 1.1//EN" "http://www.w3.org/Graphics/SVG/1.1/DTD/svg11.dtd">
<svg version="1.1" id="Capa_1" xmlns="http://www.w3.org/2000/svg" xmlns:xlink="http://www.w3.org/1999/xlink" x="0px" y="0px"
	 width="512px" height="641.577px" viewBox="0 0 512 641.577" enable-background="new 0 0 512 641.577" xml:space="preserve">
<path fill="#FFFFFF" d="M381.782,49.134C353.989,16.532,311.67,0,256,0c-55.67,0-97.989,16.532-125.782,49.134
	c-27.945,32.78-32.118,71.185-32.118,91.16v231.414c0,19.976,4.172,58.38,32.118,91.16C158.011,495.469,200.33,512,256,512
	c55.67,0,97.989-16.53,125.782-49.132c27.945-32.78,32.118-71.185,32.118-91.16V140.294
	C413.9,120.318,409.728,81.914,381.782,49.134z M256,178.374c-11.536,0-20.92-9.384-20.92-20.92v-44.831
	c0-11.536,9.384-20.921,20.92-20.921s20.92,9.385,20.92,20.921v44.831C276.92,168.99,267.536,178.374,256,178.374z M397.384,371.708
	c0,20.668-6.815,123.776-141.384,123.776c-134.568,0-141.384-103.108-141.384-123.776V140.294
	c0-20.237,6.555-119.484,133.126-123.628v59.449c-16.682,3.772-29.179,18.702-29.179,36.508v44.831
	c0,17.806,12.497,32.735,29.179,36.507v67.857c0,4.562,3.696,8.258,8.258,8.258s8.258-3.696,8.258-8.258v-67.857
	c16.682-3.771,29.179-18.701,29.179-36.507v-44.831c0-17.806-12.497-32.735-29.179-36.508V16.666
	C390.83,20.81,397.384,120.056,397.384,140.294V371.708z"/>
<path fill="#FFFFFF" d="M279.764,552.297L256,576.06l-23.764-23.764c-3.202-3.202-8.395-3.201-11.596,0.001
	c-3.202,3.202-3.203,8.394-0.001,11.596l29.563,29.563c2.941,2.94,7.556,3.172,10.771,0.711c0.285-0.219,0.564-0.451,0.826-0.712
	l29.563-29.563c3.201-3.202,3.201-8.395,0-11.597C288.158,549.094,282.967,549.094,279.764,552.297z"/>
<path fill="#FFFFFF" d="M279.764,598.02L256,621.784l-23.764-23.764c-3.202-3.202-8.395-3.201-11.596,0.001
	c-3.202,3.202-3.203,8.394-0.001,11.596l29.563,29.563c2.941,2.94,7.556,3.172,10.771,0.711c0.285-0.219,0.564-0.451,0.826-0.712
	l29.563-29.563c3.201-3.202,3.201-8.395,0-11.597C288.158,594.818,282.967,594.818,279.764,598.02z"/>
</svg>
